<svg xmlns="http://www.w3.org/2000/svg" viewBox="0 0 64 64" width="70" height="70">
  <path d="M32 4c-9.2 0-18 7-18 16 0 4.2 2 7.8 5.1 10.3C11.7 34 4 43.2 4 54c0 2.2 1.8 4 4 4 8.6 0 14.4-7.4 18.3-13.5 3.9 1.4 8.2 2.5 12.7 2.5 11 0 20-9 20-20S43 4 32 4z" fill="#FF4500"/>
  <path d="M52 24c-6 0-12-1-18-2 2-2 3-4.5 3-7 0-5.5-4.5-10-10-10-1 0-2 0-3 .2C26 6 19 2 12 2 8.7 2 5.8 3.7 4 6c4.7 3.8 8 10 8 16 0 3.5-1 7-3 10 6-0.5 12-2 18-2 10 0 18 8 18 18s-8 18-18 18c-1.5 0-3-0.2-4.5-0.6C38.2 58 32 64 24 64c-4.2 0-8.4-1.5-12-4-0.2-0.1-0.4-0.3-0.5-0.4C9.8 61.7 4 57.5 4 54c0-4.6 3.1-10 8-15-2.5-1.5-4-4.5-4-7.5 0-4.4 2-8.7 6-11 4.7-2.8 11.4-3 16-3 1.7 0 3.4 0 5.2 0.1 4.5 0.3 8.9 1.2 13 2.5 4 1.3 7.5 3 10 5 0.5 0.4 1 0.7 1.5 1.2-1.2 3.3-3.4 6.2-6 8.5 1.6 1.5 3.5 2.5 5.5 2.5 6 0 10-5 10-10s-4-10-10-10z" fill="#FFD700"/>
</svg>

